{"title":"Chinatown (1974) - DVD Rip [x264/AAC + Eng subs]","uid":6470426,"size":2154765848,"categoryP":"video","categoryS":"movies","magnet":"?xt=urn:btih:a58a9edcc386401fc957a5e789499f27c3bd5b11&amp;dn=Chinatown+%281974%29+-+DVD+Rip+%5Bx264%2FAAC+%2B+Eng+subs%5D&amp;tr=udp%3A%2F%2Ftracker.openbittorrent.com%3A80&amp;tr=udp%3A%2F%2Fopen.demonii.com%3A1337&amp;tr=udp%3A%2F%2Ftracker.coppersurfer.tk%3A6969&amp;tr=udp%3A%2F%2Fexodus.desync.com%3A6969","seeders":1,"leechers":0,"uploader":null,"files":-1,"time":1308124715,"description":"Chinatown (1974), directed by Roman Polanski and starring Jack Nicholson, Faye Dunaway, and John Huston.\n\n\nThis encoding was ripped from the original DVD using Handbrake 0.9.5. English subtitles have been included within the file itself. Great video and audio quality in a small (2 GB) package.\n\nSee the following screenshots for images of how settings were done in Handbrake for this rip, or take a look at the following technological jargon:\n\n\nVideo settings: http://postimage.org/image/1o8jtyxac/\n\nAudio settings: http://postimage.org/image/1o8giw8as/\n\nAdvanced settings: http://postimage.org/image/1o8n51m9w/\n\n\nGeneral:\n\nFormat                           : MPEG-4\nFormat profile                   : Base Media / Version 2\nCodec ID                         : mp42\nFile size                        : 2.01 GiB\nDuration                         : 2h 10mn\nOverall bit rate                 : 2 201 Kbps\n\nVideo:\n\nFormat/Info                      : Advanced Video Codec\nFormat profile                   : &lt;a class=&quot;__cf_email__&quot; href=&quot;/cdn-cgi/l/email-protection&quot; data-cfemail=&quot;ace1cdc5c2ece09f829c&quot;&gt;[email&amp;#160;protected]&lt;/a&gt;&lt;script cf-hash='f9e31' type=&quot;text/javascript&quot;&gt;\n/* &lt;![CDATA[ */!function(){try{var t=&quot;currentScript&quot;in document?document.currentScript:function(){for(var t=document.getElementsByTagName(&quot;script&quot;),e=t.length;e--;)if(t[e].getAttribute(&quot;cf-hash&quot;))return t[e]}();if(t&amp;&amp;t.previousSibling){var e,r,n,i,c=t.previousSibling,a=c.getAttribute(&quot;data-cfemail&quot;);if(a){for(e=&quot;&quot;,r=parseInt(a.substr(0,2),16),n=2;a.length-n;n+=2)i=parseInt(a.substr(n,2),16)^r,e+=String.fromCharCode(i);e=document.createTextNode(e),c.parentNode.replaceChild(e,c)}}}catch(u){}}();/* ]]&gt; */&lt;/script&gt;\nFormat settings, CABAC           : Yes\nCodec ID/Info                    : Advanced Video Coding\nDuration                         : 2h 10mn\nBit rate mode                    : Variable\nBit rate                         : 2 031 Kbps\nWidth                            : 716 pixels\nHeight                           : 364 pixels\nDisplay aspect ratio             : 2.35:1\nFrame rate mode                  : Variable\nFrame rate                       : 23.976 fps\nColor space                      : YUV\nChroma subsampling               : 4:2:0\nBit depth                        : 8 bits\nScan type                        : Progressive\nBits/(Pixel*Frame)               : 0.325\nStream size                      : 1.85 GiB (92%)\nWriting library                  : x264 core 112\n\nAudio:\n\nID                               : 2\nFormat                           : AAC\nFormat/Info                      : Advanced Audio Codec\nFormat profile                   : LC\nDuration                         : 2h 10mn\nBit rate mode                    : Variable\nBit rate                         : 161 Kbps\nMaximum bit rate                 : 255 Kbps\nChannel(s)                       : 2 channels (L R)\nSampling rate                    : 48.0 KHz\nCompression mode                 : Lossy\nStream size                      : 150 MiB (7%)\nLanguage                         : English\n\nSubtitles:\n\nID                               : 3\nFormat                           : mp4s\nCodec ID                         : E0\nDuration                         : 2h 8mn\nBit rate mode                    : Variable\nBit rate                         : 2 623 bps\nMaximum bit rate                 : 4 290 Mbps\nStream size                      : 2.42 MiB (0%)\nLanguage                         : English","torrent":{"xt":"urn:btih:a58a9edcc386401fc957a5e789499f27c3bd5b11","amp;dn":"Chinatown+%281974%29+-+DVD+Rip+%5Bx264%2FAAC+%2B+Eng+subs%5D","amp;tr":["udp%3A%2F%2Ftracker.openbittorrent.com%3A80","udp%3A%2F%2Fopen.demonii.com%3A1337","udp%3A%2F%2Ftracker.coppersurfer.tk%3A6969","udp%3A%2F%2Fexodus.desync.com%3A6969"],"infoHash":"a58a9edcc386401fc957a5e789499f27c3bd5b11","infoHashBuffer":{"type":"Buffer","data":[165,138,158,220,195,134,64,31,201,87,165,231,137,73,159,39,195,189,91,17]},"announce":[],"urlList":[]}}